<svg xmlns="http://www.w3.org/2000/svg" width="500" height="500" style="width:100%;height:100%;transform:translate3d(0,0,0);content-visibility:visible" viewBox="0 0 500 500"><defs><clipPath id="a"><path d="M0 0h500v500H0z"/></clipPath></defs><g clip-path="url(#a)"><path fill="none" style="display:none"/><path fill="none" style="display:none"/><g style="display:none"><path/><path style="mix-blend-mode:multiply"/></g><path style="display:none"/><g style="display:none"><path/><path style="mix-blend-mode:multiply"/><path fill="none"/></g><path fill="none" style="display:none"/><path fill="none" style="display:none"/><path fill="#07A889" d="m124.54-122.61-.316-.315c-18.05-18.033-41.812-28.203-66.909-28.636-25.126-.447-48.595 8.951-66.031 26.43l-115.908 114.02c-35.979 36.067-34.889 95.742 2.431 133.026l.315.316c18.05 18.032 41.813 28.202 66.91 28.636.557.009 1.112.013 1.668.013 24.512 0 47.314-9.353 64.363-26.444L126.971 10.417C162.95-25.65 161.86-85.326 124.54-122.61zM106.491-8.524-7.235 104.726c-12.385 12.414-29.059 19.076-46.953 18.773-17.941-.31-34.938-7.59-47.864-20.503l-.242-.242c-26.662-26.638-27.508-69.203-1.85-94.925L9.582-105.421c12.385-12.415 29.056-19.085 46.952-18.773 17.94.31 34.938 7.591 47.862 20.502l.245.244c26.662 26.637 27.509 69.203 1.85 94.924z" style="display:block" transform="translate(250 250)"/><path fill="none" stroke="#121330" stroke-width="7" d="m124.54-122.61-.316-.315c-18.05-18.033-41.812-28.203-66.909-28.636-25.126-.447-48.595 8.951-66.031 26.43l-115.908 114.02c-35.979 36.067-34.889 95.742 2.431 133.026l.315.316c18.05 18.032 41.813 28.202 66.91 28.636.557.009 1.112.013 1.668.013 24.512 0 47.314-9.353 64.363-26.444L126.971 10.417C162.95-25.65 161.86-85.326 124.54-122.61zM106.491-8.524-7.235 104.726c-12.385 12.414-29.059 19.076-46.953 18.773-17.941-.31-34.938-7.59-47.864-20.503l-.242-.242c-26.662-26.638-27.508-69.203-1.85-94.925L9.582-105.421c12.385-12.415 29.056-19.085 46.952-18.773 17.94.31 34.938 7.591 47.862 20.502l.245.244c26.662 26.637 27.509 69.203 1.85 94.924z" style="display:block" transform="translate(250 250)"/><g class="com" style="display:none"><path/><path/><path/><path/><path/><path/><path/><path/><path/><path/><path/><path/></g></g></svg>